<?xml version="1.0" standalone="no"?>
<!DOCTYPE svg PUBLIC "-//W3C//DTD SVG 20010904//EN"
 "http://www.w3.org/TR/2001/REC-SVG-20010904/DTD/svg10.dtd">
<svg version="1.0" xmlns="http://www.w3.org/2000/svg"
 width="610.000000pt" height="610.000000pt" viewBox="0 0 610.000000 610.000000"
 preserveAspectRatio="xMidYMid meet">
<metadata>
Created by potrace 1.11, written by Peter Selinger 2001-2013
</metadata>
<g transform="translate(0.000000,610.000000) scale(0.100000,-0.100000)"
fill="#000000" stroke="none">
<path d="M1084 5170 c-17 -4 -35 -10 -41 -13 -6 -4 -236 -235 -511 -515 -318
-323 -503 -518 -507 -535 -4 -15 -5 -37 -1 -49 4 -18 1716 -2304 1908 -2548
143 -183 392 -520 403 -546 24 -58 86 -81 132 -49 12 8 144 172 293 365 149
192 274 351 278 354 8 5 585 -729 590 -751 2 -8 20 -13 51 -13 52 0 80 21 100
73 15 38 2154 2858 2217 2922 27 28 61 56 77 62 26 12 27 16 27 81 l0 69 -540
541 c-440 440 -548 543 -578 552 -43 12 -3847 12 -3898 0z m671 -400 c2 -4
-111 -133 -253 -287 -351 -381 -322 -345 -322 -403 0 -59 -93 67 771 -1040
371 -476 701 -899 732 -941 31 -42 64 -84 73 -93 12 -12 14 -23 8 -35 -5 -10
-81 -111 -169 -224 -149 -191 -161 -204 -176 -189 -22 22 -1830 2443 -1836
2458 -2 6 142 182 322 390 l325 379 233 5 c214 5 279 0 292 -20z m1945 20 c13
-9 13 -11 1 -19 -11 -7 -9 -10 10 -13 28 -4 671 -717 661 -733 -3 -5 -303
-390 -666 -855 -363 -465 -660 -846 -661 -848 -7 -10 -36 16 -70 64 -22 31
-65 87 -95 124 -52 63 -111 142 -188 249 -19 25 -59 80 -90 121 -31 41 -60 80
-64 85 -24 33 -132 171 -137 175 -4 3 -49 61 -101 130 -52 69 -97 127 -100
130 -3 3 -17 21 -30 40 -14 19 -30 42 -37 50 -6 8 -42 53 -80 100 -37 47 -70
87 -73 90 -3 3 -39 52 -80 110 -41 58 -77 107 -80 110 -17 15 -50 70 -50 84 0
9 -6 27 -14 39 -24 38 -29 123 -10 165 18 39 555 588 587 601 30 11 1350 12
1367 1z m1548 -374 c204 -205 372 -378 372 -384 0 -7 -12 -17 -27 -23 -16 -6
-23 -13 -17 -17 10 -6 -380 -520 -442 -582 -14 -14 -37 -44 -52 -68 -46 -73
-1427 -1840 -1434 -1836 -15 9 -98 125 -98 137 0 7 -18 28 -40 47 -22 19 -40
44 -40 55 -1 19 -36 63 -130 162 l-40 42 25 37 c14 20 25 40 25 45 0 4 8 10
18 13 10 3 25 19 35 35 14 24 127 183 154 216 5 6 24 30 43 55 19 25 37 47 40
50 16 15 100 122 192 245 57 77 142 187 189 245 105 131 115 144 195 255 35
50 79 110 97 134 57 79 237 306 274 346 10 11 40 50 66 87 26 36 53 72 60 80
7 7 42 54 78 105 61 85 67 98 73 158 4 36 3 73 -2 81 -5 9 -128 138 -273 287
-313 321 -342 353 -335 366 4 5 128 7 313 4 l308 -5 373 -372z"/>
<path d="M2889 4571 c-30 -30 -37 -67 -19 -100 5 -10 101 -100 215 -201 113
-101 205 -185 205 -187 0 -1 -122 -202 -272 -445 -331 -540 -318 -517 -318
-550 0 -28 80 -136 171 -230 55 -58 92 -64 138 -20 16 15 127 189 246 387 120
198 226 369 236 381 11 11 19 24 19 28 0 5 20 36 44 70 24 33 62 97 86 141 24
44 58 98 76 121 19 23 34 47 34 55 0 8 7 23 15 33 8 11 15 33 15 50 0 26 -31
62 -233 263 l-232 233 -199 0 -198 0 -29 -29z"/>
</g>
</svg>
