<?xml version="1.0" standalone="no"?>
<!DOCTYPE svg PUBLIC "-//W3C//DTD SVG 20010904//EN"
 "http://www.w3.org/TR/2001/REC-SVG-20010904/DTD/svg10.dtd">
<svg version="1.0" xmlns="http://www.w3.org/2000/svg"
 width="309.000000pt" height="309.000000pt" viewBox="0 0 309.000000 309.000000"
 preserveAspectRatio="xMidYMid meet">
<metadata>
Created by potrace 1.11, written by Peter Selinger 2001-2013
</metadata>
<g transform="translate(0.000000,309.000000) scale(0.100000,-0.100000)"
fill="#000000" stroke="none">
<path d="M912 2992 c-7 -5 -37 -8 -67 -7 -30 1 -55 -2 -55 -6 0 -4 -17 -6 -37
-5 -21 2 -43 -1 -50 -6 -7 -6 -33 -10 -58 -10 -25 0 -45 -3 -45 -8 0 -4 -31
-7 -70 -6 -38 1 -71 -2 -73 -7 -4 -14 -33 2 -46 26 -7 13 -22 23 -34 23 -46 0
-81 -62 -71 -124 6 -39 -14 -86 -107 -247 -19 -33 -47 -87 -64 -120 -24 -49
-35 -61 -57 -63 -32 -4 -78 -57 -78 -89 0 -45 39 -121 54 -106 3 4 6 1 6 -5 0
-7 7 -12 15 -12 8 0 15 -4 15 -9 0 -5 9 -20 20 -33 11 -12 56 -76 99 -140 43
-64 81 -115 84 -112 2 3 7 -7 11 -21 4 -14 11 -25 16 -25 6 0 10 -7 10 -15 0
-9 7 -18 15 -21 8 -4 15 -12 15 -19 0 -7 4 -15 9 -17 4 -1 44 -55 87 -118 43
-63 82 -116 86 -118 4 -2 8 -9 8 -16 0 -7 11 -25 25 -40 14 -15 25 -29 25 -32
0 -3 11 -17 25 -32 14 -15 28 -36 32 -47 3 -11 11 -24 18 -30 6 -5 52 -68 100
-140 49 -71 92 -131 97 -133 4 -2 8 -10 8 -18 0 -8 4 -14 8 -14 5 0 75 -99
157 -220 82 -121 153 -220 157 -220 4 0 8 -6 8 -14 0 -7 10 -24 23 -37 13 -13
71 -94 129 -179 92 -137 106 -161 110 -207 3 -29 12 -59 21 -68 10 -9 17 -13
17 -9 0 3 6 2 13 -5 10 -8 17 -7 25 1 7 7 12 8 12 2 0 -5 9 5 20 21 11 17 20
42 20 57 0 15 5 37 10 50 17 37 40 74 40 64 0 -5 11 8 25 28 14 20 25 41 25
46 0 6 5 10 10 10 6 0 10 10 10 22 0 12 3 18 6 15 4 -3 52 60 106 141 55 81
124 179 154 218 30 39 54 76 54 83 0 6 4 11 8 11 7 0 161 221 188 270 6 11 29
40 52 66 23 26 51 66 62 88 11 23 20 37 20 33 0 -4 48 64 108 151 59 88 110
158 115 155 4 -2 7 5 7 16 0 11 6 24 14 28 7 4 25 26 40 48 71 109 113 164
119 158 4 -3 7 4 7 16 0 12 4 19 10 16 6 -3 10 3 10 14 0 12 5 21 10 21 6 0
17 15 25 33 8 17 14 28 15 24 0 -5 32 39 72 97 48 71 77 106 90 106 27 0 57
31 68 70 13 45 -4 107 -30 115 -11 4 -20 11 -20 16 0 5 -6 9 -13 9 -15 0 -177
233 -177 256 0 8 -4 13 -8 10 -5 -3 -15 7 -23 22 -8 15 -16 29 -19 32 -13 13
-30 64 -30 92 0 31 -34 97 -51 99 -5 1 -15 2 -21 3 -7 1 -24 -3 -38 -9 -30
-13 -83 -12 -87 2 -2 5 -26 8 -53 7 -28 -2 -50 2 -50 7 0 6 -24 9 -60 7 -37
-2 -61 0 -64 7 -2 6 -22 10 -45 9 -23 -1 -41 2 -41 6 0 4 -17 7 -37 6 -21 -2
-43 1 -49 6 -7 5 -182 7 -390 4 -209 -2 -408 -4 -444 -4 -36 -1 -141 1 -235 4
-93 2 -176 1 -183 -4z"/>
</g>
</svg>
