<?xml version="1.0" standalone="no"?>
<!DOCTYPE svg PUBLIC "-//W3C//DTD SVG 20010904//EN"
 "http://www.w3.org/TR/2001/REC-SVG-20010904/DTD/svg10.dtd">
<svg version="1.0" xmlns="http://www.w3.org/2000/svg"
 width="293.000000pt" height="293.000000pt" viewBox="0 0 293.000000 293.000000"
 preserveAspectRatio="xMidYMid meet">
<metadata>
Created by potrace 1.11, written by Peter Selinger 2001-2013
</metadata>
<g transform="translate(0.000000,293.000000) scale(0.100000,-0.100000)"
fill="#000000" stroke="none">
<path d="M1060 2662 c0 -4 -126 -6 -279 -5 -253 3 -281 1 -299 -15 -34 -28
-463 -535 -475 -560 -8 -16 -8 -32 -1 -50 6 -15 254 -405 551 -867 297 -463
543 -851 547 -863 8 -25 46 -38 71 -25 9 5 74 96 145 202 l128 193 138 -206
c75 -113 145 -208 155 -211 28 -9 57 3 65 28 13 42 1037 1618 1080 1664 66 68
72 53 -110 268 -295 348 -341 401 -358 420 -16 17 -35 21 -128 25 -61 3 -110
3 -110 0 0 -6 -114 -2 -142 4 -10 2 -18 1 -18 -2 0 -6 -368 -6 -678 0 -67 2
-122 1 -122 -2 0 -6 -114 -2 -142 4 -10 2 -18 1 -18 -2z m-240 -225 c0 -5 -53
-77 -118 -160 -150 -192 -152 -196 -152 -229 0 -20 112 -195 386 -606 l385
-579 -78 -119 -79 -119 -439 688 c-242 379 -441 693 -443 698 -6 15 298 424
319 429 33 8 219 6 219 -3z m1100 -207 c88 -118 159 -219 156 -225 -2 -5 -143
-220 -313 -478 -286 -431 -311 -466 -325 -450 -8 10 -17 23 -19 28 -2 6 -35
57 -73 115 -38 58 -107 164 -154 235 -47 72 -89 131 -94 133 -4 2 -8 8 -8 13
0 5 -45 77 -100 159 -55 82 -100 154 -100 159 0 5 -4 11 -8 13 -16 6 -52 99
-52 134 0 25 9 49 27 73 38 51 210 251 242 281 l26 25 317 0 317 -1 161 -214z
m404 208 c1 -2 80 -94 175 -206 l173 -203 -169 -257 c-93 -141 -302 -458 -464
-704 -162 -246 -297 -448 -302 -448 -4 0 -15 17 -25 38 -9 20 -25 43 -34 50
-10 7 -18 21 -18 31 0 16 -10 31 -65 94 -17 20 -20 37 -5 37 5 0 9 3 9 8 -3
20 2 32 16 32 8 0 15 6 15 14 0 7 9 25 21 40 11 14 17 26 12 26 -4 0 -3 4 2 8
6 4 94 133 197 287 102 154 249 375 326 492 127 192 141 216 140 255 0 24 -4
50 -9 59 -4 9 -69 89 -144 179 -74 89 -135 165 -135 169 0 6 280 5 284 -1z"/>
<path d="M1366 2324 c-9 -8 -16 -24 -16 -35 0 -10 44 -66 98 -125 53 -58 98
-110 100 -114 2 -5 -58 -128 -132 -273 -75 -145 -136 -270 -136 -277 0 -25 80
-149 100 -155 44 -14 59 4 146 175 47 93 98 188 113 212 55 85 88 144 105 188
10 25 23 52 31 60 7 8 18 31 25 52 16 44 14 48 -101 180 -117 135 -105 128
-219 128 -76 0 -102 -4 -114 -16z"/>
</g>
</svg>
